<svg width="194" height="45" viewBox="0 0 194 45" fill="none" xmlns="http://www.w3.org/2000/svg">
<path d="M58.5929 29.2407C55.3629 37.7018 48.8702 37.7634 44.0883 34.8823C54.8905 38.0361 55.6562 15.1523 43.4106 1.98828C53.5527 8.95635 60.2857 19.0371 58.5929 29.2407Z" fill="url(#paint0_linear_806_10893)"/>
<path d="M2.28041 29.2404C5.51045 37.7015 12.0031 37.7631 16.7851 34.882C5.98281 38.0361 5.21708 15.1523 17.4629 1.98828C7.32063 8.95608 0.587634 19.0368 2.28041 29.2404Z" fill="url(#paint1_linear_806_10893)"/>
<path d="M58.5931 29.2403C55.6946 45.6902 40.9228 49.1346 30.4374 33.3681C19.952 49.1343 5.18029 45.6902 2.28174 29.2403C5.51177 37.7014 12.0044 37.763 16.7864 34.8819C19.4443 33.283 21.5744 30.7745 22.3282 28.2925L12.8727 20.7027L25.6141 19.4383L30.4372 5.66406L35.2603 19.4383L48.0017 20.7027L38.5461 28.2925C39.2999 30.7745 41.43 33.283 44.088 34.8819C48.8707 37.763 55.3631 37.7014 58.5931 29.2403Z" fill="url(#paint2_linear_806_10893)"/>
<path d="M103.175 15.0039H107.398L96.3693 40.9373H92.7425L87.5261 28.2688L82.3594 40.9373H78.7326L67.7036 15.0039H71.8767L80.8193 36.615L85.1913 25.8343L80.7202 15.0536H84.3469L87.5264 23.3504L90.7058 15.0536H94.3326L89.9106 25.8343L94.2826 36.615L103.175 15.0039Z" fill="url(#paint3_linear_806_10893)"/>
<path d="M111.422 10.1328V4.66797H115.794V10.1328H111.422ZM111.422 40.9348V15.0014H115.794V40.9348H111.422Z" fill="url(#paint4_linear_806_10893)"/>
<path d="M122.75 4.66797H127.122V34.2281C127.122 35.1891 127.379 35.9421 127.893 36.4885C128.406 37.0349 129.126 37.3084 130.054 37.3084C130.418 37.3084 130.848 37.2509 131.345 37.1346C131.842 37.0189 132.306 36.8783 132.736 36.7123L133.432 40.2395C132.703 40.5376 131.842 40.7859 130.849 40.9848C129.855 41.1837 128.977 41.2829 128.216 41.2829C126.526 41.2829 125.193 40.803 124.216 39.8423C123.239 38.8821 122.75 37.5407 122.75 35.8181V4.66797Z" fill="url(#paint5_linear_806_10893)"/>
<path d="M136.661 4.66797H141.033V34.2281C141.033 35.1891 141.289 35.9421 141.803 36.4885C142.316 37.0349 143.036 37.3084 143.964 37.3084C144.328 37.3084 144.759 37.2509 145.255 37.1346C145.752 37.0189 146.216 36.8783 146.647 36.7123L147.342 40.2395C146.613 40.5376 145.752 40.7859 144.759 40.9848C143.765 41.1837 142.887 41.2829 142.126 41.2829C140.437 41.2829 139.103 40.803 138.126 39.8423C137.149 38.8821 136.661 37.5407 136.661 35.8181V4.66797Z" fill="url(#paint6_linear_806_10893)"/>
<path d="M164.185 18.8247C161.999 18.8916 160.069 19.4543 158.397 20.5139C156.724 21.5744 155.541 23.0476 154.845 24.9356V40.9328H150.473V14.9994H154.547V21.0109C155.441 19.2225 156.617 17.7405 158.074 16.5646C159.531 15.3892 161.088 14.8008 162.744 14.8008C163.075 14.8008 163.357 14.8008 163.589 14.8008C163.82 14.8008 164.019 14.8179 164.185 14.8505V18.8247Z" fill="url(#paint7_linear_806_10893)"/>
<path d="M178.84 41.432C176.885 41.432 175.105 41.0671 173.499 40.3389C171.892 39.6107 170.518 38.6334 169.376 37.4077C168.233 36.1826 167.347 34.7584 166.718 33.1352C166.088 31.5129 165.774 29.8065 165.774 28.0182C165.774 26.197 166.097 24.4746 166.743 22.8515C167.389 21.2291 168.283 19.8046 169.425 18.5789C170.568 17.3541 171.942 16.3767 173.549 15.6478C175.155 14.9196 176.919 14.5547 178.84 14.5547C180.76 14.5547 182.533 14.9196 184.156 15.6478C185.778 16.3767 187.162 17.3541 188.304 18.5789C189.447 19.8046 190.341 21.2291 190.987 22.8515C191.633 24.4746 191.956 26.197 191.956 28.0182C191.956 29.8065 191.64 31.5129 191.012 33.1352C190.382 34.7584 189.488 36.1829 188.329 37.4077C187.169 38.6334 185.787 39.6107 184.181 40.3389C182.574 41.0671 180.794 41.432 178.84 41.432ZM170.245 28.0676C170.245 29.4262 170.469 30.6844 170.916 31.8432C171.363 33.0029 171.975 34.0131 172.754 34.8738C173.532 35.7357 174.443 36.4139 175.487 36.9108C176.53 37.4075 177.648 37.6561 178.84 37.6561C180.032 37.6561 181.15 37.4078 182.194 36.9108C183.237 36.4139 184.156 35.7271 184.951 34.849C185.746 33.9719 186.367 32.9449 186.814 31.7687C187.261 30.5933 187.485 29.3264 187.485 27.9679C187.485 26.6436 187.261 25.3931 186.814 24.2169C186.367 23.0415 185.746 22.0147 184.951 21.1366C184.156 20.2595 183.237 19.5717 182.194 19.0747C181.15 18.5781 180.033 18.3295 178.84 18.3295C177.648 18.3295 176.53 18.5864 175.487 19.0996C174.443 19.6134 173.532 20.309 172.754 21.186C171.975 22.0639 171.363 23.091 170.916 24.2663C170.469 25.4431 170.245 26.7102 170.245 28.0676Z" fill="url(#paint8_linear_806_10893)"/>
<defs>
<linearGradient id="paint0_linear_806_10893" x1="43.5646" y1="3.53474" x2="51.1415" y2="27.8726" gradientUnits="userSpaceOnUse">
<stop stop-color="#27AAE1"/>
<stop offset="1" stop-color="#2B3990"/>
</linearGradient>
<linearGradient id="paint1_linear_806_10893" x1="17.3087" y1="3.53446" x2="9.73182" y2="27.8723" gradientUnits="userSpaceOnUse">
<stop stop-color="#27AAE1"/>
<stop offset="1" stop-color="#2B3990"/>
</linearGradient>
<linearGradient id="paint2_linear_806_10893" x1="30.4375" y1="52.043" x2="30.4375" y2="13.8847" gradientUnits="userSpaceOnUse">
<stop stop-color="#27AAE1"/>
<stop offset="1" stop-color="#1C75BC"/>
</linearGradient>
<linearGradient id="paint3_linear_806_10893" x1="87.5508" y1="1.29914" x2="87.5508" y2="43.5992" gradientUnits="userSpaceOnUse">
<stop stop-color="#27AAE1"/>
<stop offset="1" stop-color="#1C75BC"/>
</linearGradient>
<linearGradient id="paint4_linear_806_10893" x1="113.608" y1="1.29667" x2="113.608" y2="43.5968" gradientUnits="userSpaceOnUse">
<stop stop-color="#27AAE1"/>
<stop offset="1" stop-color="#1C75BC"/>
</linearGradient>
<linearGradient id="paint5_linear_806_10893" x1="128.091" y1="1.29667" x2="128.091" y2="43.5968" gradientUnits="userSpaceOnUse">
<stop stop-color="#27AAE1"/>
<stop offset="1" stop-color="#1C75BC"/>
</linearGradient>
<linearGradient id="paint6_linear_806_10893" x1="142.001" y1="1.29667" x2="142.001" y2="43.5968" gradientUnits="userSpaceOnUse">
<stop stop-color="#27AAE1"/>
<stop offset="1" stop-color="#1C75BC"/>
</linearGradient>
<linearGradient id="paint7_linear_806_10893" x1="157.329" y1="1.29463" x2="157.329" y2="43.5947" gradientUnits="userSpaceOnUse">
<stop stop-color="#27AAE1"/>
<stop offset="1" stop-color="#1C75BC"/>
</linearGradient>
<linearGradient id="paint8_linear_806_10893" x1="178.865" y1="1.29687" x2="178.865" y2="43.597" gradientUnits="userSpaceOnUse">
<stop stop-color="#27AAE1"/>
<stop offset="1" stop-color="#1C75BC"/>
</linearGradient>
</defs>
</svg>
